<!-- Generated by IcoMoon.io -->
<svg version="1.1" xmlns="http://www.w3.org/2000/svg" width="40" height="40" viewBox="0 0 40 40">
<title>info-with-circle</title>
<path d="M20 0.8c-10.606 0-19.202 8.596-19.202 19.2 0 10.606 8.596 19.202 19.202 19.202 10.602 0 19.2-8.596 19.2-19.202 0-10.604-8.598-19.2-19.2-19.2zM21.792 7.732c1.872 0 2.422 1.086 2.422 2.328 0 1.55-1.24 2.984-3.358 2.984-1.772 0-2.616-0.89-2.564-2.364 0-1.242 1.038-2.948 3.5-2.948zM16.996 31.5c-1.28 0-2.214-0.778-1.32-4.188l1.466-6.050c0.254-0.968 0.296-1.356 0-1.356-0.382 0-2.044 0.668-3.024 1.328l-0.638-1.046c3.11-2.598 6.686-4.122 8.216-4.122 1.28 0 1.492 1.512 0.854 3.84l-1.68 6.36c-0.298 1.124-0.17 1.512 0.128 1.512 0.384 0 1.64-0.464 2.876-1.438l0.724 0.972c-3.026 3.024-6.324 4.188-7.602 4.188z"></path>
</svg>
