<svg aria-hidden="true" style="position: absolute; width: 0; height: 0; overflow: hidden;" version="1.1" xmlns="http://www.w3.org/2000/svg" xmlns:xlink="http://www.w3.org/1999/xlink">
<defs>
<symbol id="icon-chevron-thin-left" viewBox="0 0 40 40">
<title>chevron-thin-left</title>
<path d="M27.782 34.836c0.536 0.544 0.536 1.418 0 1.958s-1.402 0.542-1.938 0l-15.66-15.816c-0.536-0.54-0.536-1.414 0-1.958l15.66-15.816c0.536-0.54 1.402-0.54 1.938 0 0.536 0.542 0.536 1.418 0 1.958l-14.282 14.838 14.282 14.836z"></path>
</symbol>
<symbol id="icon-chevron-thin-right" viewBox="0 0 40 40">
<title>chevron-thin-right</title>
<path d="M26.5 20l-14.282-14.84c-0.536-0.54-0.536-1.414 0-1.958 0.536-0.54 1.402-0.54 1.938 0l15.66 15.816c0.536 0.542 0.536 1.418 0 1.958l-15.66 15.816c-0.536 0.542-1.402 0.54-1.938 0-0.536-0.538-0.536-1.414 0-1.958l14.282-14.834z"></path>
</symbol>
<symbol id="icon-info-with-circle" viewBox="0 0 40 40">
<title>info-with-circle</title>
<path d="M20 0.8c-10.606 0-19.202 8.596-19.202 19.2 0 10.606 8.596 19.202 19.202 19.202 10.602 0 19.2-8.596 19.2-19.202 0-10.604-8.598-19.2-19.2-19.2zM21.792 7.732c1.872 0 2.422 1.086 2.422 2.328 0 1.55-1.24 2.984-3.358 2.984-1.772 0-2.616-0.89-2.564-2.364 0-1.242 1.038-2.948 3.5-2.948zM16.996 31.5c-1.28 0-2.214-0.778-1.32-4.188l1.466-6.050c0.254-0.968 0.296-1.356 0-1.356-0.382 0-2.044 0.668-3.024 1.328l-0.638-1.046c3.11-2.598 6.686-4.122 8.216-4.122 1.28 0 1.492 1.512 0.854 3.84l-1.68 6.36c-0.298 1.124-0.17 1.512 0.128 1.512 0.384 0 1.64-0.464 2.876-1.438l0.724 0.972c-3.026 3.024-6.324 4.188-7.602 4.188z"></path>
</symbol>
<symbol id="icon-google" viewBox="0 0 40 40">
<title>google</title>
<path d="M3.978 11.178c0 2.988 0.998 5.144 2.964 6.41 1.612 1.040 3.48 1.196 4.452 1.196 0.236 0 0.426-0.012 0.558-0.020 0 0-0.308 2.008 1.18 3.992h-0.068c-2.578 0-10.986 0.538-10.986 7.454 0 7.032 7.722 7.39 9.272 7.39 0.122 0 0.194-0.004 0.194-0.004 0.016 0 0.126 0.004 0.316 0.004 0.994 0 3.564-0.124 5.95-1.286 3.096-1.5 4.666-4.118 4.666-7.77 0-3.528-2.392-5.628-4.138-7.164-1.066-0.938-1.988-1.746-1.988-2.532 0-0.8 0.674-1.402 1.524-2.164 1.378-1.23 2.678-2.984 2.678-6.3 0-2.914-0.378-4.872-2.708-6.114 0.242-0.124 1.102-0.214 1.526-0.274 1.262-0.172 3.108-0.368 3.108-1.398v-0.198h-9.198c-0.092 0.004-9.302 0.344-9.302 8.778zM18.826 29.204c0.176 2.812-2.23 4.886-5.844 5.148-3.67 0.27-6.69-1.382-6.866-4.192-0.086-1.352 0.508-2.672 1.67-3.726 1.178-1.066 2.796-1.726 4.556-1.856 0.208-0.012 0.414-0.024 0.62-0.024 3.398 0.002 5.698 1.998 5.864 4.65zM16.424 9.252c0.902 3.176-0.46 6.492-2.632 7.106-0.25 0.070-0.506 0.104-0.768 0.104-1.988 0-3.958-2.012-4.69-4.786-0.408-1.552-0.374-2.916 0.094-4.224 0.458-1.29 1.286-2.156 2.326-2.45 0.25-0.070 0.508-0.106 0.77-0.106 2.4 0 3.944 0.996 4.9 4.356zM32 16v-6h-4v6h-6v4h6v6h4v-6h6v-4h-6z"></path>
</symbol>
<symbol id="icon-instagram" viewBox="0 0 40 40">
<title>instagram</title>
<path d="M34 2h-28c-2.2 0-4 1.8-4 4v28c0 2.202 1.8 4 4 4h28c2.2 0 4-1.798 4-4v-28c0-2.2-1.8-4-4-4zM19.968 31.046c6.118 0 11.076-4.962 11.076-11.078 0-0.676-0.086-1.328-0.206-1.968h3.162v14.432c0 0.764-0.62 1.38-1.386 1.38h-25.228c-0.766 0-1.386-0.616-1.386-1.38v-14.432h3.098c-0.122 0.64-0.208 1.292-0.208 1.968 0 6.118 4.962 11.078 11.078 11.078zM13.046 19.968c0-3.824 3.1-6.922 6.924-6.922 3.822 0 6.924 3.098 6.924 6.922s-3.102 6.924-6.924 6.924c-3.826 0-6.924-3.1-6.924-6.924zM32.614 12h-3.23c-0.764 0-1.384-0.624-1.384-1.384v-3.234c0-0.764 0.62-1.382 1.382-1.382h3.23c0.768 0 1.388 0.618 1.388 1.382v3.232c0 0.762-0.62 1.386-1.386 1.386z"></path>
</symbol>
<symbol id="icon-location" viewBox="0 0 32 32">
<title>location</title>
<path d="M16 0c-5.523 0-10 4.477-10 10 0 10 10 22 10 22s10-12 10-22c0-5.523-4.477-10-10-10zM16 16c-3.314 0-6-2.686-6-6s2.686-6 6-6 6 2.686 6 6-2.686 6-6 6z"></path>
</symbol>
<symbol id="icon-search" viewBox="0 0 32 32">
<title>search</title>
<path d="M31.008 27.231l-7.58-6.447c-0.784-0.705-1.622-1.029-2.299-0.998 1.789-2.096 2.87-4.815 2.87-7.787 0-6.627-5.373-12-12-12s-12 5.373-12 12 5.373 12 12 12c2.972 0 5.691-1.081 7.787-2.87-0.031 0.677 0.293 1.515 0.998 2.299l6.447 7.58c1.104 1.226 2.907 1.33 4.007 0.23s0.997-2.903-0.23-4.007zM12 20c-4.418 0-8-3.582-8-8s3.582-8 8-8 8 3.582 8 8-3.582 8-8 8z"></path>
</symbol>
<symbol id="icon-link" viewBox="0 0 32 32">
<title>link</title>
<path d="M13.757 19.868c-0.416 0-0.832-0.159-1.149-0.476-2.973-2.973-2.973-7.81 0-10.783l6-6c1.44-1.44 3.355-2.233 5.392-2.233s3.951 0.793 5.392 2.233c2.973 2.973 2.973 7.81 0 10.783l-2.743 2.743c-0.635 0.635-1.663 0.635-2.298 0s-0.635-1.663 0-2.298l2.743-2.743c1.706-1.706 1.706-4.481 0-6.187-0.826-0.826-1.925-1.281-3.094-1.281s-2.267 0.455-3.094 1.281l-6 6c-1.706 1.706-1.706 4.481 0 6.187 0.635 0.635 0.635 1.663 0 2.298-0.317 0.317-0.733 0.476-1.149 0.476z"></path>
<path d="M8 31.625c-2.037 0-3.952-0.793-5.392-2.233-2.973-2.973-2.973-7.81 0-10.783l2.743-2.743c0.635-0.635 1.664-0.635 2.298 0s0.635 1.663 0 2.298l-2.743 2.743c-1.706 1.706-1.706 4.481 0 6.187 0.826 0.826 1.925 1.281 3.094 1.281s2.267-0.455 3.094-1.281l6-6c1.706-1.706 1.706-4.481 0-6.187-0.635-0.635-0.635-1.663 0-2.298s1.663-0.635 2.298 0c2.973 2.973 2.973 7.81 0 10.783l-6 6c-1.44 1.44-3.355 2.233-5.392 2.233z"></path>
</symbol>
<symbol id="icon-heart" viewBox="0 0 32 32">
<title>heart</title>
<path d="M23.6 2c-3.363 0-6.258 2.736-7.599 5.594-1.342-2.858-4.237-5.594-7.601-5.594-4.637 0-8.4 3.764-8.4 8.401 0 9.433 9.516 11.906 16.001 21.232 6.13-9.268 15.999-12.1 15.999-21.232 0-4.637-3.763-8.401-8.4-8.401z"></path>
</symbol>
<symbol id="icon-facebook" viewBox="0 0 32 32">
<title>facebook</title>
<path d="M19 6h5v-6h-5c-3.86 0-7 3.14-7 7v3h-4v6h4v16h6v-16h5l1-6h-6v-3c0-0.542 0.458-1 1-1z"></path>
</symbol>
<symbol id="icon-twitter" viewBox="0 0 32 32">
<title>twitter</title>
<path d="M32 7.075c-1.175 0.525-2.444 0.875-3.769 1.031 1.356-0.813 2.394-2.1 2.887-3.631-1.269 0.75-2.675 1.3-4.169 1.594-1.2-1.275-2.906-2.069-4.794-2.069-3.625 0-6.563 2.938-6.563 6.563 0 0.512 0.056 1.012 0.169 1.494-5.456-0.275-10.294-2.888-13.531-6.862-0.563 0.969-0.887 2.1-0.887 3.3 0 2.275 1.156 4.287 2.919 5.463-1.075-0.031-2.087-0.331-2.975-0.819 0 0.025 0 0.056 0 0.081 0 3.181 2.263 5.838 5.269 6.437-0.55 0.15-1.131 0.231-1.731 0.231-0.425 0-0.831-0.044-1.237-0.119 0.838 2.606 3.263 4.506 6.131 4.563-2.25 1.762-5.075 2.813-8.156 2.813-0.531 0-1.050-0.031-1.569-0.094 2.913 1.869 6.362 2.95 10.069 2.95 12.075 0 18.681-10.006 18.681-18.681 0-0.287-0.006-0.569-0.019-0.85 1.281-0.919 2.394-2.075 3.275-3.394z"></path>
</symbol>
<symbol id="icon-tumblr" viewBox="0 0 32 32">
<title>tumblr</title>
<path d="M18.001 14l-0 7.318c0 1.857-0.024 2.927 0.173 3.453 0.195 0.524 0.685 1.067 1.218 1.381 0.709 0.425 1.517 0.637 2.428 0.637 1.62 0 2.577-0.214 4.179-1.267v4.811c-1.366 0.642-2.558 1.019-3.666 1.279-1.109 0.258-2.308 0.388-3.596 0.388-1.463 0-2.327-0.184-3.45-0.552-1.124-0.371-2.083-0.9-2.876-1.579-0.795-0.685-1.344-1.413-1.652-2.182s-0.46-1.888-0.46-3.351v-11.222h-4.295v-4.531c1.256-0.408 2.661-0.993 3.556-1.755 0.899-0.764 1.618-1.678 2.16-2.748 0.543-1.067 0.917-2.429 1.121-4.079h5.159l-0 8h7.999v6h-7.999z"></path>
</symbol>
<symbol id="icon-linkedin2" viewBox="0 0 32 32">
<title>linkedin2</title>
<path d="M12 12h5.535v2.837h0.079c0.77-1.381 2.655-2.837 5.464-2.837 5.842 0 6.922 3.637 6.922 8.367v9.633h-5.769v-8.54c0-2.037-0.042-4.657-3.001-4.657-3.005 0-3.463 2.218-3.463 4.509v8.688h-5.767v-18z"></path>
<path d="M2 12h6v18h-6v-18z"></path>
<path d="M8 7c0 1.657-1.343 3-3 3s-3-1.343-3-3c0-1.657 1.343-3 3-3s3 1.343 3 3z"></path>
</symbol>
</defs>
</svg>
